<svg viewBox="0 0 1600 500" xmlns="http://www.w3.org/2000/svg">
  <defs>
    <linearGradient id="bg" x1="0" y1="0" x2="1" y2="1">
      <stop offset="0%" stop-color="#0a0e12"/>
      <stop offset="55%" stop-color="#0c1116"/>
      <stop offset="100%" stop-color="#0a0e12"/>
    </linearGradient>

    <radialGradient id="glowSpot" cx="50%" cy="50%" r="50%">
      <stop offset="0%" stop-color="#00d9a3" stop-opacity="0.16"/>
      <stop offset="100%" stop-color="#00d9a3" stop-opacity="0"/>
    </radialGradient>

    <radialGradient id="glowSpotRed" cx="50%" cy="50%" r="50%">
      <stop offset="0%" stop-color="#ff3b5c" stop-opacity="0.14"/>
      <stop offset="100%" stop-color="#ff3b5c" stop-opacity="0"/>
    </radialGradient>

    <linearGradient id="titleFill" x1="0" y1="0" x2="1" y2="0">
      <stop offset="0%" stop-color="#f3f6f8"/>
      <stop offset="62%" stop-color="#f3f6f8"/>
      <stop offset="100%" stop-color="#00d9a3"/>
    </linearGradient>

    <pattern id="dotgrid" width="28" height="28" patternUnits="userSpaceOnUse">
      <circle cx="1.2" cy="1.2" r="1.2" fill="#1b232b"/>
    </pattern>

    <filter id="softGlow" x="-60%" y="-60%" width="220%" height="220%">
      <feGaussianBlur stdDeviation="6" result="blur"/>
      <feMerge>
        <feMergeNode in="blur"/>
        <feMergeNode in="SourceGraphic"/>
      </feMerge>
    </filter>

    <filter id="strongGlow" x="-80%" y="-80%" width="260%" height="260%">
      <feGaussianBlur stdDeviation="10" result="blur"/>
      <feMerge>
        <feMergeNode in="blur"/>
        <feMergeNode in="SourceGraphic"/>
      </feMerge>
    </filter>

    <filter id="scan" x="0" y="0" width="100%" height="100%">
      <feTurbulence type="fractalNoise" baseFrequency="0 0.9" numOctaves="1" result="noise"/>
      <feColorMatrix in="noise" type="matrix" values="0 0 0 0 0  0 0 0 0 0  0 0 0 0 0  0 0 0 0.02 0"/>
    </filter>
  </defs>

  <!-- base -->
  <rect width="1600" height="500" fill="url(#bg)"/>
  <rect width="1600" height="500" fill="url(#dotgrid)"/>
  <ellipse cx="1180" cy="150" rx="520" ry="260" fill="url(#glowSpot)"/>
  <ellipse cx="880" cy="430" rx="420" ry="180" fill="url(#glowSpotRed)"/>

  <!-- faint hex / binary texture -->
  <g font-family="'JetBrains Mono','Fira Code',Consolas,monospace" font-size="12" fill="#1c2731" opacity="0.7">
    <text x="1180" y="60">0x1595</text>
    <text x="1310" y="95">01001010</text>
    <text x="1080" y="120">T1071.001</text>
    <text x="1400" y="150">0x1078</text>
    <text x="1230" y="185">11000101</text>
    <text x="1350" y="230">0xC2</text>
    <text x="60" y="440">0x1005</text>
    <text x="140" y="470">10110010</text>
  </g>

  <!-- corner reticle brackets -->
  <g stroke="#243039" stroke-width="2" fill="none">
    <path d="M40 90 V40 H90"/>
    <path d="M1560 90 V40 H1510"/>
    <path d="M40 410 V460 H90"/>
    <path d="M1560 410 V460 H1510"/>
  </g>

  <!-- top-right status badge -->
  <g transform="translate(1250,52)">
    <rect x="0" y="0" width="310" height="34" rx="4" fill="none" stroke="#26343d" stroke-width="1.5"/>
    <circle cx="20" cy="17" r="4" fill="#00d9a3">
      <animate attributeName="opacity" values="1;0.25;1" dur="2.2s" repeatCount="indefinite"/>
    </circle>
    <text x="34" y="22" font-family="'JetBrains Mono',Consolas,monospace" font-size="13" letter-spacing="1.5" fill="#9fb0ba">ATT&amp;CK-ALIGNED · CALDERA C2</text>
  </g>

  <!-- eyebrow -->
  <text x="82" y="150" font-family="'JetBrains Mono',Consolas,monospace" font-size="16" letter-spacing="4" fill="#00d9a3">// IOT ADVERSARY EMULATION FRAMEWORK</text>

  <!-- wordmark -->
  <text x="78" y="248" font-family="'JetBrains Mono',Consolas,monospace" font-size="104" font-weight="700" letter-spacing="-1" fill="url(#titleFill)" filter="url(#softGlow)">Threat<tspan fill="#00d9a3">Forge</tspan></text>
  <text x="82" y="248" font-family="'JetBrains Mono',Consolas,monospace" font-size="104" font-weight="700" letter-spacing="-1" fill="none" stroke="#00d9a3" stroke-opacity="0.25" stroke-width="1">Threat<tspan fill="none">Forge</tspan></text>

  <!-- blinking cursor after wordmark -->
  <rect x="700" y="168" width="14" height="70" fill="#ff3b5c" filter="url(#softGlow)">
    <animate attributeName="opacity" values="1;0;1" dur="1.1s" repeatCount="indefinite"/>
  </rect>

  <!-- tagline -->
  <text x="82" y="292" font-family="'Helvetica Neue',Arial,sans-serif" font-size="19" fill="#8a95a3">Reproducible, ATT&amp;CK-aligned attack chains against simulated smart-home devices —</text>
  <text x="82" y="318" font-family="'Helvetica Neue',Arial,sans-serif" font-size="19" fill="#8a95a3">measuring detection coverage from adversary action to SIEM alert.</text>

  <!-- stack chips -->
  <g font-family="'JetBrains Mono',Consolas,monospace" font-size="13" fill="#6b7684">
    <g transform="translate(82,352)">
      <rect width="98" height="28" rx="3" fill="none" stroke="#26343d"/>
      <text x="14" y="19">CALDERA</text>
    </g>
    <g transform="translate(190,352)">
      <rect width="108" height="28" rx="3" fill="none" stroke="#26343d"/>
      <text x="14" y="19">NODE-RED</text>
    </g>
    <g transform="translate(308,352)">
      <rect width="88" height="28" rx="3" fill="none" stroke="#26343d"/>
      <text x="14" y="19">WAZUH</text>
    </g>
    <g transform="translate(406,352)">
      <rect width="96" height="28" rx="3" fill="none" stroke="#26343d"/>
      <text x="14" y="19">DOCKER</text>
    </g>
  </g>

  <!-- ================= five-stage kill-chain trace ================= -->
  <g>
    <!-- base trace line -->
    <path d="M180 452 L 500 452 L 560 430 L 760 430 L 820 452 L 1060 452 L 1120 430 L 1320 430 L 1380 452 L 1460 452"
          fill="none" stroke="#16323a" stroke-width="3"/>
    <!-- glowing signal segment: recon -> exploit (teal, live) -->
    <path d="M180 452 L 500 452 L 560 430 L 760 430"
          fill="none" stroke="#00d9a3" stroke-width="3" filter="url(#softGlow)" opacity="0.9"/>
    <!-- breach segment: exploit -> C2 (turns red, compromise) -->
    <path d="M760 430 L 820 452 L 1060 452"
          fill="none" stroke="#ff3b5c" stroke-width="3" filter="url(#softGlow)" opacity="0.95"/>
    <!-- detected segment: C2 -> impact (teal dashed, being watched) -->
    <path d="M1060 452 L 1120 430 L 1320 430 L 1380 452 L 1460 452"
          fill="none" stroke="#00d9a3" stroke-width="3" stroke-dasharray="2 7" filter="url(#softGlow)" opacity="0.85"/>

    <!-- traveling pulse -->
    <circle r="5" fill="#f3f6f8" filter="url(#strongGlow)">
      <animateMotion dur="4s" repeatCount="indefinite"
        path="M180 452 L 500 452 L 560 430 L 760 430 L 820 452 L 1060 452 L 1120 430 L 1320 430 L 1380 452 L 1460 452"/>
    </circle>

    <!-- node 1: RECON -->
    <g transform="translate(180,452)">
      <polygon points="0,-30 26,-15 26,15 0,30 -26,15 -26,-15" fill="#0c1116" stroke="#00d9a3" stroke-width="2"/>
      <circle cx="-4" cy="-4" r="7" fill="none" stroke="#dfe6ea" stroke-width="2"/>
      <line x1="1" y1="3" x2="8" y2="10" stroke="#dfe6ea" stroke-width="2" stroke-linecap="round"/>
      <text x="0" y="52" text-anchor="middle" font-family="'JetBrains Mono',Consolas,monospace" font-size="12" letter-spacing="1.5" fill="#9fb0ba">RECON</text>
      <text x="0" y="67" text-anchor="middle" font-family="'JetBrains Mono',Consolas,monospace" font-size="10" fill="#4d5a64">T1595</text>
    </g>

    <!-- node 2: EXPLOIT -->
    <g transform="translate(760,430)">
      <polygon points="0,-30 26,-15 26,15 0,30 -26,15 -26,-15" fill="#0c1116" stroke="#00d9a3" stroke-width="2"/>
      <path d="M2,-11 L-7,2 L-1,2 L-3,11 L8,-2 L2,-2 Z" fill="#dfe6ea"/>
      <text x="0" y="52" text-anchor="middle" font-family="'JetBrains Mono',Consolas,monospace" font-size="12" letter-spacing="1.5" fill="#9fb0ba">EXPLOIT</text>
      <text x="0" y="67" text-anchor="middle" font-family="'JetBrains Mono',Consolas,monospace" font-size="10" fill="#4d5a64">T1190</text>
    </g>

    <!-- node 3: C2 (breach, red) -->
    <g transform="translate(1060,452)">
      <polygon points="0,-30 26,-15 26,15 0,30 -26,15 -26,-15" fill="#0c1116" stroke="#ff3b5c" stroke-width="2" filter="url(#softGlow)"/>
      <circle cx="0" cy="0" r="3" fill="#ff3b5c"/>
      <path d="M-11,-3 A11,11 0 0 1 11,-3" fill="none" stroke="#ff3b5c" stroke-width="2"/>
      <path d="M-7,-7 A16,16 0 0 1 7,-7" fill="none" stroke="#ff3b5c" stroke-width="1.4" opacity="0.6"/>
      <text x="0" y="52" text-anchor="middle" font-family="'JetBrains Mono',Consolas,monospace" font-size="12" letter-spacing="1.5" fill="#ff3b5c">C2 · MQTT</text>
      <text x="0" y="67" text-anchor="middle" font-family="'JetBrains Mono',Consolas,monospace" font-size="10" fill="#4d5a64">T1071.001</text>
    </g>

    <!-- node 4: COLLECT -->
    <g transform="translate(1320,430)">
      <polygon points="0,-30 26,-15 26,15 0,30 -26,15 -26,-15" fill="#0c1116" stroke="#00d9a3" stroke-width="2"/>
      <rect x="-9" y="-6" width="18" height="12" rx="2" fill="none" stroke="#dfe6ea" stroke-width="2"/>
      <circle cx="0" cy="0" r="3.2" fill="none" stroke="#dfe6ea" stroke-width="1.6"/>
      <text x="0" y="52" text-anchor="middle" font-family="'JetBrains Mono',Consolas,monospace" font-size="12" letter-spacing="1.5" fill="#9fb0ba">COLLECT</text>
      <text x="0" y="67" text-anchor="middle" font-family="'JetBrains Mono',Consolas,monospace" font-size="10" fill="#4d5a64">T1005</text>
    </g>

    <!-- node 5: IMPACT -->
    <g transform="translate(1460,452)">
      <polygon points="0,-30 26,-15 26,15 0,30 -26,15 -26,-15" fill="#0c1116" stroke="#00d9a3" stroke-width="2"/>
      <rect x="-7" y="-2" width="14" height="10" rx="1.5" fill="none" stroke="#dfe6ea" stroke-width="2"/>
      <path d="M-4,-2 v-4 a4,4 0 0 1 8,0 v4" fill="none" stroke="#dfe6ea" stroke-width="2"/>
      <text x="0" y="52" text-anchor="middle" font-family="'JetBrains Mono',Consolas,monospace" font-size="12" letter-spacing="1.5" fill="#9fb0ba">IMPACT</text>
      <text x="0" y="67" text-anchor="middle" font-family="'JetBrains Mono',Consolas,monospace" font-size="10" fill="#4d5a64">T1489</text>
    </g>
  </g>

  <!-- baseline hairline -->
  <line x1="40" y1="460" x2="1560" y2="460" stroke="#171f26" stroke-width="1"/>
</svg>
